# xmcd CD database file
#
# Track frame offsets:
#	150
#	21302
#	42400
#	60247
#	82845
#	102290
#	123912
#	143892
#	167250
#	186215
#	204675
#	223465
#	240230
#
# Disc length: 3484 seconds
#
# Revision: 0
# Processed by: cddbd v1.5.1PL0 Copyright (c) Steve Scherf et al.
# Submitted via: CDex 1.51
#
DISCID=ad0d9a0d
DTITLE=Janne Da Arc - アルカディア
DYEAR=2004
DGENRE=JPop
TTITLE0=ACID BREATH
TTITLE1=ROMANCﾖ
TTITLE2=HEAVY DAMAGE
TTITLE3=DOLLS
TTITLE4=TRAP
TTITLE5=心の行方
TTITLE6=ATHENS
TTITLE7=FREEDOM
TTITLE8=WIZARD
TTITLE9=PROCESS
TTITLE10=BLACK JACK
TTITLE11=カーネーション
TTITLE12=KISS ME
EXTD=YEAR: 2004
EXTT0=
EXTT1=
EXTT2=
EXTT3=
EXTT4=
EXTT5=
EXTT6=
EXTT7=
EXTT8=
EXTT9=
EXTT10=
EXTT11=
EXTT12=
PLAYORDER=
